<?xml version="1.0" encoding="UTF-8" standalone="no"?>
<svg
   width="100"
   height="100"
   viewBox="0 0 1000 1000"
   version="1.1"
   xml:space="preserve"
   style="clip-rule:evenodd;fill-rule:evenodd;stroke-linejoin:round;stroke-miterlimit:2"
   id="svg3"
   xmlns="http://www.w3.org/2000/svg"
   xmlns:svg="http://www.w3.org/2000/svg"><defs
   id="defs3" />
    <g
   id="g3"
   style="display:inline"><path
     d="m 0.515,0.008 c 0.015,0 0.033,-0.002 0.047,-0.006 L 0.545,-0.084 c -0.004,0 -0.013,0.001 -0.018,0.001 -0.028,0 -0.036,-0.02 -0.046,-0.046 L 0.302,-0.61 C 0.27,-0.695 0.213,-0.737 0.131,-0.737 c -0.029,0 -0.054,0.005 -0.067,0.011 l 0.025,0.089 c 0.068,-0.018 0.095,-0.004 0.123,0.066 L 0.228,-0.529 0.031,0 h 0.112 l 0.134,-0.387 h 0.006 l 0.104,0.297 c 0.024,0.065 0.069,0.098 0.128,0.098 z"
     style="clip-rule:evenodd;fill:#1e88e5;fill-opacity:1;fill-rule:nonzero;stroke-linejoin:round;stroke-miterlimit:2"
     id="path2"
     transform="matrix(1000.0009,0,0,1000.0009,203.66346,864.67679)" /></g>

</svg>
