<?xml version="1.0" encoding="UTF-8" standalone="no"?>
<svg
   width="100"
   height="100"
   viewBox="0 0 1000 1000"
   version="1.1"
   xml:space="preserve"
   style="clip-rule:evenodd;fill-rule:evenodd;stroke-linejoin:round;stroke-miterlimit:2"
   id="svg3"
   xmlns="http://www.w3.org/2000/svg"
   xmlns:svg="http://www.w3.org/2000/svg"><defs
   id="defs3" />
    <g
   id="g4"
   style="display:inline"><circle
     id="path3"
     cx="500"
     cy="500"
     r="500"
     style="clip-rule:evenodd;fill:#212121;fill-opacity:1;fill-rule:evenodd;stroke-linejoin:round;stroke-miterlimit:2" /><path
     d="m 680.39965,807.54633 c 12.38442,0 27.24572,-1.65125 38.80451,-4.95377 l -14.03567,-71.00399 c -3.30251,0 -10.73316,0.82564 -14.86131,0.82564 -23.11757,0 -29.72259,-16.51256 -37.97887,-37.97888 L 504.54095,297.3084 C 478.12086,227.13004 431.06008,192.45368 363.35861,192.45368 c -23.94321,0 -44.5839,4.12813 -55.31706,9.0819 l 20.6407,73.48087 c 56.14268,-14.8613 78.43463,-3.30252 101.5522,54.49143 L 443.4445,364.18423 280.79584,800.9413 h 92.4703 L 483.90026,481.42338 h 4.95376 l 85.86529,245.21143 c 19.81506,53.6658 56.96831,80.91152 105.68034,80.91152 z"
     style="clip-rule:evenodd;fill:#1e88e5;fill-opacity:1;fill-rule:nonzero;stroke-width:825.627;stroke-linejoin:round;stroke-miterlimit:2"
     id="path2-0" /></g>

</svg>
